<svg id="Filled" xmlns="http://www.w3.org/2000/svg" viewBox="0 0 24 24"><title>59 duplicate</title><path d="M12,21a7.008,7.008,0,0,1-7-7V5c0-.2.013-.4.03-.592A5.006,5.006,0,0,0,2,9V19a5.006,5.006,0,0,0,5,5h6a5.006,5.006,0,0,0,4.592-3.03c-.2.017-.392.03-.592.03Z"/><path d="M21.155,3.272,18.871.913A3,3,0,0,0,18,.3V4h3.66A2.987,2.987,0,0,0,21.155,3.272Z"/><path d="M17,4a1,1,0,0,0,1,1h3.966a2.981,2.981,0,0,0-.811-1.728L18.871.913A3.011,3.011,0,0,0,17,.029Z"/><path d="M15,4V0H12A5.006,5.006,0,0,0,7,5v9a5.006,5.006,0,0,0,5,5h5a5.006,5.006,0,0,0,5-5V7H18A3,3,0,0,1,15,4Z"/></svg>