<svg id="Layer_1" data-name="Layer 1" xmlns="http://www.w3.org/2000/svg" viewBox="0 0 24 24"><path d="M16,4.018a6,6,0,0,1,5.233,3.545L22.761,11H17a1,1,0,0,1-1-1ZM8.942,21A2.424,2.424,0,0,1,9,21.5a2.5,2.5,0,0,1-5,0,2.424,2.424,0,0,1,.058-.5Zm11,0a2.424,2.424,0,0,1,.058.5,2.5,2.5,0,0,1-5,0,2.424,2.424,0,0,1,.058-.5ZM24,16.122A2.852,2.852,0,0,1,21,19H3a3,3,0,0,1-3-3V9A5.006,5.006,0,0,1,5,4H9.2l.66-2.642a1.794,1.794,0,0,1,3.48,0L14,4v6a3,3,0,0,0,3,3h6.537A16.113,16.113,0,0,1,24,16.122ZM10,12a1,1,0,0,0-1-1H8V10a1,1,0,0,0-2,0v1H5a1,1,0,0,0,0,2H6v1a1,1,0,0,0,2,0V13H9A1,1,0,0,0,10,12Z"/></svg>