<svg id="Layer_1" data-name="Layer 1" xmlns="http://www.w3.org/2000/svg" viewBox="0 0 24 24"><path d="M16,.3a4.968,4.968,0,0,1,1.879,1.164l1.656,1.658A4.954,4.954,0,0,1,20.7,5H16ZM21,7V19a5.006,5.006,0,0,1-5,5H8a5.006,5.006,0,0,1-5-5V5A5.006,5.006,0,0,1,8,0h6V5a2,2,0,0,0,2,2ZM16.808,17.413a1,1,0,0,0-1.4-.222A4.586,4.586,0,0,1,13.135,18a1.347,1.347,0,0,1-.864-.345A3.025,3.025,0,0,0,10.439,17a5.861,5.861,0,0,0-3.046,1.206,1,1,0,1,0,1.214,1.588A3.951,3.951,0,0,1,10.439,19c.246,0,.371.078.7.3a3.252,3.252,0,0,0,2,.7,6.464,6.464,0,0,0,3.456-1.193A1,1,0,0,0,16.808,17.413ZM17,14a1,1,0,0,0-1-1H8a1,1,0,0,0,0,2h8A1,1,0,0,0,17,14Zm0-4a1,1,0,0,0-1-1H8a1,1,0,0,0,0,2h8A1,1,0,0,0,17,10Z"/></svg>