<svg id="Layer_1" data-name="Layer 1" xmlns="http://www.w3.org/2000/svg" viewBox="0 0 24 24"><path d="M14.181.207A1,1,0,0,0,13,1.19V4.069A7.954,7.954,0,0,0,4.069,13H1.19a1,1,0,0,0-.983,1.181A12,12,0,1,0,14.181.207ZM12,14a1.994,1.994,0,0,1-1.723-1H8a1,1,0,0,1,0-2h2.277A2,2,0,0,1,11,10.277V7a1,1,0,0,1,2,0v3.277A1.994,1.994,0,0,1,12,14ZM9.972.1a1,1,0,1,1-1,1A1,1,0,0,1,9.972.1Zm-4.1,1.756a1,1,0,1,1-1,1A1,1,0,0,1,5.869,1.854ZM2.779,4.841a1,1,0,1,1-1,1A1,1,0,0,1,2.779,4.841Zm-1.6,4.167a1,1,0,1,1-1,1A1,1,0,0,1,1.177,9.008Z"/></svg>