<svg id="Layer_1" data-name="Layer 1" xmlns="http://www.w3.org/2000/svg" viewBox="0 0 24 24"><path d="M23,16a1,1,0,0,1-.446-.105l-2-1a1,1,0,0,1,.894-1.79l2,1A1,1,0,0,1,23,16ZM21.447,6.9l2-1a1,1,0,1,0-.894-1.79l-2,1a1,1,0,0,0,.894,1.79ZM24,10a1,1,0,0,0-1-1H21a1,1,0,0,0,0,2h2A1,1,0,0,0,24,10Zm-6,9V1a1,1,0,0,0-2,0c0,2.949-2.583,4-5,4H4A4,4,0,0,0,0,9v2a4,4,0,0,0,4,4h7c2.417,0,5,1.051,5,4a1,1,0,0,0,2,0ZM8.186,17H4a6,6,0,0,1-1.382-.167l2.5,5.582A2.671,2.671,0,0,0,7.558,24,2.462,2.462,0,0,0,9.8,20.528Z"/></svg>