<svg id="Layer_1" data-name="Layer 1" xmlns="http://www.w3.org/2000/svg" viewBox="0 0 24 24"><path d="M12.883,15.216,4.948,23.151a2.9,2.9,0,1,1-4.1-4.1l7.935-7.935ZM17.1,6.9a2.967,2.967,0,0,0-4.1,0h0L10.2,9.7l4.1,4.1L17.1,11a2.9,2.9,0,0,0,0-4.1ZM4.863,5.145l1.55.442.442,1.55a1.191,1.191,0,0,0,2.29,0l.442-1.55,1.55-.442a1.191,1.191,0,0,0,0-2.29l-1.55-.442L9.145.863a1.191,1.191,0,0,0-2.29,0l-.442,1.55-1.55.442A1.191,1.191,0,0,0,4.863,5.145Zm12,12,1.55.442.442,1.55a1.191,1.191,0,0,0,2.29,0l.442-1.55,1.55-.442a1.191,1.191,0,0,0,0-2.29l-1.55-.442-.442-1.55a1.191,1.191,0,0,0-2.29,0l-.442,1.55-1.55.442A1.191,1.191,0,0,0,16.863,17.145ZM17.756,4.5l1.355.387L19.5,6.244a1.042,1.042,0,0,0,2,0l.387-1.355L23.244,4.5a1.042,1.042,0,0,0,0-2l-1.355-.387L21.5.756a1.042,1.042,0,0,0-2,0l-.387,1.355L17.756,2.5A1.042,1.042,0,0,0,17.756,4.5Z"/></svg>