<svg id="Layer_1" data-name="Layer 1" xmlns="http://www.w3.org/2000/svg" viewBox="0 0 24 24"><path d="M17,7a1,1,0,0,1-1,1H8A1,1,0,0,1,8,6h8A1,1,0,0,1,17,7Zm6-2V19a5.006,5.006,0,0,1-5,5H6a5.006,5.006,0,0,1-5-5V5A5.006,5.006,0,0,1,6,0H18A5.006,5.006,0,0,1,23,5ZM7,18a1,1,0,1,0-1,1A1,1,0,0,0,7,18Zm0-4a1,1,0,1,0-1,1A1,1,0,0,0,7,14Zm4,4a1,1,0,1,0-1,1A1,1,0,0,0,11,18Zm0-4a1,1,0,1,0-1,1A1,1,0,0,0,11,14Zm8,4a1,1,0,0,0-1-1H14a1,1,0,0,0,0,2h4A1,1,0,0,0,19,18Zm-5-3a1,1,0,1,0-1-1A1,1,0,0,0,14,15Zm5-1a1,1,0,1,0-1,1A1,1,0,0,0,19,14Zm0-7a3,3,0,0,0-3-3H8a3,3,0,0,0,0,6h8A3,3,0,0,0,19,7Z"/></svg>