<svg id="Layer_1" data-name="Layer 1" xmlns="http://www.w3.org/2000/svg" viewBox="0 0 24 24"><path d="M22.942,6.837,20.76,4.654l.947-.947a1,1,0,1,0-1.414-1.414l-.947.947L17.163,1.058a3.7,3.7,0,0,0-5.105,0,3.609,3.609,0,0,0,0,5.106L14.24,8.346,8.346,14.24,6.163,12.058a3.7,3.7,0,0,0-5.105,0,3.609,3.609,0,0,0,0,5.106L3.24,19.346l-.947.947a1,1,0,1,0,1.414,1.414l.947-.947,2.183,2.182a3.609,3.609,0,0,0,5.105,0h0a3.608,3.608,0,0,0,0-5.105L9.76,15.655l5.9-5.895,2.182,2.182a3.609,3.609,0,0,0,5.105,0h0a3.608,3.608,0,0,0,0-5.105Z"/></svg>