<svg id="Layer_1" data-name="Layer 1" xmlns="http://www.w3.org/2000/svg" viewBox="0 0 24 24"><path d="M20,10v4a4.977,4.977,0,0,1-2,3.974V15a7.009,7.009,0,0,0-7-7H5c-.2,0-.4.013-.592.03A5.006,5.006,0,0,1,9,5h6A5.006,5.006,0,0,1,20,10Zm-8.406,8.577a2,2,0,0,1-2.83,0l-.476-.48L2.379,23.225A4.956,4.956,0,0,0,5.026,24h6a5.006,5.006,0,0,0,5-5V15a4.983,4.983,0,0,0-.081-.8Zm3.551-6.4-4.962,4.994-.475-.479A1.993,1.993,0,0,0,7,16.578L.922,21.843A4.962,4.962,0,0,1,.026,19V15a5.006,5.006,0,0,1,5-5h6A5,5,0,0,1,15.145,12.175ZM5,14.1a1,1,0,1,0-1,1A1,1,0,0,0,5,14.1ZM19,0H13A4.994,4.994,0,0,0,8.421,3.029C8.612,3.014,8.805,3,9,3h6a7.009,7.009,0,0,1,7,7v2.974A4.977,4.977,0,0,0,24,9V5A5.006,5.006,0,0,0,19,0Z"/></svg>