<svg id="Filled" xmlns="http://www.w3.org/2000/svg" viewBox="0 0 24 24"><title>102 pixabay</title><path d="M2,11H13a2,2,0,0,0,2-2V2a2,2,0,0,0-2-2H2A2,2,0,0,0,0,2V9A2,2,0,0,0,2,11Z"/><path d="M23.658.882A2,2,0,0,0,22,0H19a2,2,0,0,0-2,2V9a2,2,0,0,0,2,2h3a2,2,0,0,0,2-2V2A1.988,1.988,0,0,0,23.658.882Z"/><path d="M6.118,13.342A1.988,1.988,0,0,0,5,13H2a2,2,0,0,0-2,2v7a2,2,0,0,0,2,2H5a2,2,0,0,0,2-2V15a2,2,0,0,0-.882-1.658Z"/><path d="M23.118,13.342A1.988,1.988,0,0,0,22,13H11a2,2,0,0,0-2,2v7a2,2,0,0,0,2,2H22a2,2,0,0,0,2-2V15a2,2,0,0,0-.882-1.658Z"/></svg>