<svg id="Filled" xmlns="http://www.w3.org/2000/svg" viewBox="0 0 24 24"><title>27 projects</title><path d="M14.281,13.456l9.138-9.138a1.943,1.943,0,0,0,0-2.75h0a1.953,1.953,0,0,0-.312-.253c-.036-.024-.075-.039-.113-.06a1.954,1.954,0,0,0-.232-.119c-.048-.019-.1-.028-.145-.043a1.753,1.753,0,0,0-.223-.061c-.053-.01-.107-.011-.161-.016a1.846,1.846,0,0,0-1.638.63l-8.768,9.711A5.006,5.006,0,0,1,14.281,13.456Z"/><path d="M5,19h5a3,3,0,0,0,0-6C6,13,5,19,5,19Z"/><path d="M16,19a3,3,0,0,1,3-3h5V6.565l-9.04,9.04c.011.133.04.26.04.395a5.006,5.006,0,0,1-5,5H5a2,2,0,0,1-1.973-2.329c.454-2.722,2.308-7.234,6.393-7.632L19.105.313a3.854,3.854,0,0,1,.3-.272C19.269.03,19.139,0,19,0H5A5.006,5.006,0,0,0,0,5V19a5.006,5.006,0,0,0,5,5H16Z"/><path d="M19,18a1,1,0,0,0-1,1v4.7a4.964,4.964,0,0,0,1.878-1.164l2.658-2.658A4.964,4.964,0,0,0,23.7,18Z"/></svg>