<svg id="Layer_1" data-name="Layer 1" xmlns="http://www.w3.org/2000/svg" viewBox="0 0 24 24"><path d="M20,0H18.243a3.975,3.975,0,0,0-2.829,1.172L12.172,4.414A4.022,4.022,0,0,0,11,7.242V10.99c-2.855,1.986-7.509,5.276-8.121,5.889a2.993,2.993,0,0,0-.577,3.4L.293,22.293a1,1,0,0,0,0,1.414h0a1,1,0,0,0,1.414,0L3.714,21.7a2.965,2.965,0,0,0,3.407-.579c.613-.612,3.9-5.266,5.889-8.121h3.747a3.975,3.975,0,0,0,2.829-1.172l3.242-3.242A4.022,4.022,0,0,0,24,5.758V4A4,4,0,0,0,20,0Zm-.293,5.707-5,5a1,1,0,0,1-1.414-1.414l5-5a1,1,0,1,1,1.414,1.414Z"/></svg>