<svg id="Filled" xmlns="http://www.w3.org/2000/svg" viewBox="0 0 24 24"><title>134 clean</title><path d="M6.224,8.685,4.15,9.293a5.036,5.036,0,0,0-3.113,2.635A4.973,4.973,0,0,0,.9,15.947c.007.018.016.035.023.053l1.72-.281a9.6,9.6,0,0,0,4.3-2.434,1,1,0,1,1,1.4,1.43,11.649,11.649,0,0,1-5.295,2.961l-1.172.194A12.775,12.775,0,0,0,4.356,20.8l2.053-.762,1.4-.7A9.544,9.544,0,0,0,11.4,16.2l.519-.761a1,1,0,1,1,1.652,1.126l-.518.761a11.535,11.535,0,0,1-4.347,3.8l-1.55.773-.843.312a13.226,13.226,0,0,0,6.694,1.8h.924a1.011,1.011,0,0,0,.578-.182,16.506,16.506,0,0,0,5.123-5.586L8.74,7.549A12.662,12.662,0,0,1,6.224,8.685Z"/><path d="M23.715,2.285a1.013,1.013,0,0,0-1.43,0L17.521,7.049l-.32-.313a5.008,5.008,0,0,0-6.429-.479c-.092.066-.183.121-.276.185l10.027,9.844a14.228,14.228,0,0,0,.7-2.666,5.029,5.029,0,0,0-1.453-4.374l-.8-.784,4.747-4.747A1.013,1.013,0,0,0,23.715,2.285Z"/></svg>