<svg id="Layer_1" data-name="Layer 1" xmlns="http://www.w3.org/2000/svg" viewBox="0 0 24 24"><path d="M23.707,22.293a1,1,0,1,1-1.414,1.414l-22-22A1,1,0,0,1,1.707.293l2.87,2.87A7.871,7.871,0,0,1,8.814,1.085a7.985,7.985,0,0,1,8.82,5.541,1.088,1.088,0,0,0,.722.735,7.96,7.96,0,0,1,5.62,8.277,7.379,7.379,0,0,1-2.2,4.729ZM3.441,7.663a.811.811,0,0,0-1.379.464A7.286,7.286,0,0,0,2,9.039a7.422,7.422,0,0,0,.941,3.609A5.443,5.443,0,0,0,.057,18.3,5.843,5.843,0,0,0,5.683,23h9.1a11.87,11.87,0,0,0,1.952-.158.839.839,0,0,0,.462-1.42Z"/></svg>