<svg id="Layer_1" data-name="Layer 1" xmlns="http://www.w3.org/2000/svg" viewBox="0 0 24 24"><path d="M23.8,8.156l-3.413,10.4a4.945,4.945,0,0,1-2.952,3.2A6.969,6.969,0,0,0,18,19V9a7.008,7.008,0,0,0-7-7H9.335A5.016,5.016,0,0,1,14.78.221l5.686,1.746A5.021,5.021,0,0,1,23.8,8.156ZM16,9V19a5.006,5.006,0,0,1-5,5H5a5.006,5.006,0,0,1-5-5V9A5.006,5.006,0,0,1,5,4h6A5.006,5.006,0,0,1,16,9Zm-4,4a2,2,0,0,0-4,0,2,2,0,0,0-4,0c0,1.45,1.544,3.391,2.714,4.378a1.991,1.991,0,0,0,2.572,0C10.456,16.391,12,14.45,12,13Z"/></svg>