<svg id="Filled" xmlns="http://www.w3.org/2000/svg" viewBox="0 0 24 24"><title>53 psd file</title><path d="M6.205,5.794H5.367l.006,1.724.832,0a.86.86,0,1,0,0-1.72Z"/><path d="M17.018,5.872H16.2L16.2,9.725c.306,0,.649,0,.844-.009.971-.016,1.405-.974,1.405-1.916S18.077,5.872,17.018,5.872Z"/><path d="M18,19v4.54a6.977,6.977,0,0,0,2.465-1.59l1.484-1.485A6.957,6.957,0,0,0,23.54,18H19A1,1,0,0,0,18,19Z"/><path d="M19,0H5A5.006,5.006,0,0,0,0,5V19a5.006,5.006,0,0,0,5,5H15.515c.163,0,.324-.013.485-.024V19a3,3,0,0,1,3-3h4.976c.011-.161.024-.322.024-.485V5A5.006,5.006,0,0,0,19,0ZM6.205,8.764l-.84,0v1.663a.625.625,0,0,1-1.25,0V5.169c0-.022.011-.041.013-.064a.656.656,0,0,1,.036-.176.621.621,0,0,1,.129-.194l0-.007h0a.629.629,0,0,1,.2-.135.622.622,0,0,1,.241-.049H6.205a2.11,2.11,0,1,1,0,4.22Zm7.426.636a2.138,2.138,0,0,1-2.182,1.656,3.133,3.133,0,0,1-2.3-.985A.625.625,0,0,1,9.2,9.188a.6.6,0,0,1,.76-.051c.016.011.1.077.127.1a2.668,2.668,0,0,0,.848.5,1.532,1.532,0,0,0,.974-.035.723.723,0,0,0,.457-.408.566.566,0,0,0-.149-.579,1.316,1.316,0,0,0-.482-.276c-.415-.152-.824-.315-1.233-.483a1.931,1.931,0,0,1-.961-.735,1.621,1.621,0,0,1-.234-1.1,1.719,1.719,0,0,1,.207-.605,1.815,1.815,0,0,1,1.026-.826,3.178,3.178,0,0,1,2.426.331,1.082,1.082,0,0,1,.407.355.608.608,0,0,1-.032.737c-.237.28-.584.2-.878.074a7.574,7.574,0,0,0-.82-.309,1.487,1.487,0,0,0-.607-.089.6.6,0,0,0-.49.328.587.587,0,0,0,.151.618,1.245,1.245,0,0,0,.594.3c.279.073.562.124.835.217a2.664,2.664,0,0,1,.906.521A1.767,1.767,0,0,1,13.631,9.4Zm3.439,1.566c-.414.008-1.486.012-1.486.012h0a.625.625,0,0,1-.625-.623v-.033a.482.482,0,0,1-.011-.052V5.249a.627.627,0,0,1,.625-.627h1.447C18.624,4.622,19.7,5.9,19.7,7.8,19.7,9.608,18.6,10.94,17.07,10.966Z"/></svg>