<svg id="Layer_1" data-name="Layer 1" xmlns="http://www.w3.org/2000/svg" viewBox="0 0 24 24"><path d="M9,23.912c-.449.04-.9.068-1.331.068A8.106,8.106,0,0,1,1.9,22.1C.382,20.578-.174,17.909.083,15ZM23.945,8.531C24.1,5.806,23.535,3.339,22.1,1.9s-3.9-2-6.629-1.847Zm-.336,2.492a16.888,16.888,0,0,1-4.261,8.325,16.742,16.742,0,0,1-7.923,4.163L.475,12.561A16.771,16.771,0,0,1,4.652,4.652,16.888,16.888,0,0,1,12.977.391Zm-5.9-.73-4-4a1,1,0,0,0-1.414,1.414L13.586,9,12,10.586,10.707,9.293a1,1,0,0,0-1.414,1.414L10.586,12,9,13.586,7.707,12.293a1,1,0,0,0-1.414,1.414l4,4a1,1,0,0,0,1.414-1.414L10.414,15,12,13.414l1.293,1.293a1,1,0,0,0,1.414-1.414L13.414,12,15,10.414l1.293,1.293a1,1,0,0,0,1.414-1.414Z"/></svg>