<svg id="Layer_1" data-name="Layer 1" xmlns="http://www.w3.org/2000/svg" viewBox="0 0 24 24"><path d="M4.343,11H0A5.006,5.006,0,0,1,5,6h6V1.636A1.637,1.637,0,0,1,13.33.154l3.2,1.5a1,1,0,0,1,0,1.7L13,5V6h6a5.006,5.006,0,0,1,5,5H19.657a3,3,0,0,1-2.092-.849L14.829,7.172a4.074,4.074,0,0,0-5.687.03L6.464,10.121A3.017,3.017,0,0,1,4.343,11ZM12,19a1,1,0,0,0-1,1v4h2V20A1,1,0,0,0,12,19Zm7.657-6H24v8a3,3,0,0,1-3,3H15V20a3,3,0,0,0-6,0v4H3a3,3,0,0,1-3-3V13H4.343a4.994,4.994,0,0,0,3.565-1.495l2.678-2.919a2.07,2.07,0,0,1,2.8-.03l2.738,2.979A4.968,4.968,0,0,0,19.657,13ZM6,21a1,1,0,0,0-1-1H4a1,1,0,0,0,0,2H5A1,1,0,0,0,6,21Zm0-4a1,1,0,0,0-1-1H4a1,1,0,0,0,0,2H5A1,1,0,0,0,6,17Zm8-4a2,2,0,1,0-2,2A2,2,0,0,0,14,13Zm7,8a1,1,0,0,0-1-1H19a1,1,0,0,0,0,2h1A1,1,0,0,0,21,21Zm-1-5H19a1,1,0,0,0,0,2h1a1,1,0,0,0,0-2Z"/></svg>