<svg id="Layer_1" data-name="Layer 1" xmlns="http://www.w3.org/2000/svg" viewBox="0 0 24 24"><path d="M18.357,7.361a1.087,1.087,0,0,1-.722-.733h0a8,8,0,0,0-15.49.842,7.648,7.648,0,0,0,.8,5.179A5.448,5.448,0,0,0,.057,18.3,5.843,5.843,0,0,0,5.683,23h9.1c5.073,0,8.851-3.027,9.189-7.362A7.96,7.96,0,0,0,18.357,7.361Zm.308,11.386-1.586,1.414A2.9,2.9,0,0,1,15.015,21a3.013,3.013,0,0,1-2.136-.882l-1.544-1.374a1,1,0,0,1,1.33-1.494L14,18.444V11a1,1,0,0,1,2,0v7.445l1.335-1.192a1,1,0,0,1,1.33,1.494Z"/></svg>