<svg id="Filled" xmlns="http://www.w3.org/2000/svg" viewBox="0 0 24 24"><title>54 eps file</title><path d="M19,0H5A5.006,5.006,0,0,0,0,5V19a5.006,5.006,0,0,0,5,5H15.515c.163,0,.324-.013.485-.024V19a3,3,0,0,1,3-3h4.976c.011-.161.024-.322.024-.485V5A5.006,5.006,0,0,0,19,0ZM6.8,7.175a.625.625,0,0,1,0,1.25H5.391V9.782H6.962a.625.625,0,0,1,0,1.25h-2.2a.625.625,0,0,1-.625-.625V5.193a.625.625,0,0,1,.625-.625h2.2a.625.625,0,0,1,0,1.25H5.391V7.175Zm4.139,1.589-.839,0v1.663a.625.625,0,0,1-1.25,0V5.169c0-.021.01-.04.012-.061A.633.633,0,0,1,8.9,4.929a.61.61,0,0,1,.115-.172c.008-.009.011-.021.019-.029h0a.628.628,0,0,1,.442-.184h1.464a2.11,2.11,0,1,1,0,4.22Zm7.427.636a2.138,2.138,0,0,1-2.182,1.656,3.133,3.133,0,0,1-2.3-.985.625.625,0,0,1,.043-.883.6.6,0,0,1,.76-.051c.016.011.1.077.127.1a2.668,2.668,0,0,0,.848.5A1.532,1.532,0,0,0,16.64,9.7.723.723,0,0,0,17.1,9.3a.564.564,0,0,0-.15-.579,1.3,1.3,0,0,0-.482-.276c-.415-.152-.823-.315-1.232-.483a1.931,1.931,0,0,1-.961-.735,1.621,1.621,0,0,1-.234-1.1,1.719,1.719,0,0,1,.207-.605,1.815,1.815,0,0,1,1.026-.826,3.179,3.179,0,0,1,2.426.331,1.089,1.089,0,0,1,.407.355.61.61,0,0,1-.032.737c-.238.28-.584.2-.879.074a7.48,7.48,0,0,0-.819-.309,1.487,1.487,0,0,0-.607-.089.6.6,0,0,0-.491.328.589.589,0,0,0,.152.618,1.245,1.245,0,0,0,.594.3c.279.073.562.124.835.217a2.664,2.664,0,0,1,.906.521A1.767,1.767,0,0,1,18.366,9.4Z"/><path d="M19,18a1,1,0,0,0-1,1v4.54a6.977,6.977,0,0,0,2.465-1.59l1.484-1.485A6.957,6.957,0,0,0,23.54,18H19Z"/><path d="M10.939,5.794H10.1l0,1.724.832,0a.86.86,0,1,0,0-1.72Z"/></svg>