<svg id="Layer_1" data-name="Layer 1" xmlns="http://www.w3.org/2000/svg" viewBox="0 0 24 24"><path d="M5.82,19.306c.054.044.116.074.171.117L1.707,23.707A1,1,0,0,1,.293,22.293l4.285-4.285A7.841,7.841,0,0,0,5.82,19.306ZM10,12.586l6.293-6.293a1,1,0,1,1,1.414,1.414L14.414,11H21.6a30.726,30.726,0,0,0,2.28-6.075A3.992,3.992,0,0,0,19.04.119,31.838,31.838,0,0,0,10,4.107ZM12.5,13c-.025,0-.047-.013-.072-.014L5.991,19.423A7.446,7.446,0,0,0,10.589,21a8.184,8.184,0,0,0,5.9-2.545A28.716,28.716,0,0,0,20.533,13ZM8,14.5V5.507A26.454,26.454,0,0,0,5.256,7.869,7.757,7.757,0,0,0,3.009,13.7a7.646,7.646,0,0,0,1.569,4.3l3.436-3.437C8.013,14.547,8,14.525,8,14.5Z"/></svg>