<svg id="Layer_1" data-name="Layer 1" xmlns="http://www.w3.org/2000/svg" viewBox="0 0 24 24"><path d="M12,4a1,1,0,0,1-1-1V1a1,1,0,0,1,2,0V3A1,1,0,0,1,12,4Zm1,19V21a1,1,0,0,0-2,0v2a1,1,0,0,0,2,0ZM4,12a1,1,0,0,0-1-1H1a1,1,0,0,0,0,2H3A1,1,0,0,0,4,12Zm20,0a1,1,0,0,0-1-1H21a1,1,0,0,0,0,2h2A1,1,0,0,0,24,12ZM17.379,4.715l1-1.731a1,1,0,0,0-1.731-1l-1,1.731a1,1,0,0,0,.365,1.366.987.987,0,0,0,.5.135A1,1,0,0,0,17.379,4.715Zm-10.03,17.3,1-1.731a1,1,0,0,0-1.731-1l-1,1.731a1,1,0,0,0,.364,1.366.989.989,0,0,0,.5.135A1,1,0,0,0,7.349,22.018ZM5.079,7.987a1,1,0,0,0-.364-1.366l-1.731-1a1,1,0,0,0-1,1.731l1.731,1a1,1,0,0,0,1.366-.365Zm17.3,10.031a1,1,0,0,0-.364-1.367l-1.731-1a1,1,0,0,0-1,1.731l1.731,1a.987.987,0,0,0,.5.135A1,1,0,0,0,22.382,18.018ZM7.987,5.079a1,1,0,0,0,.365-1.366l-1-1.731a1,1,0,0,0-1.731,1l1,1.731a1,1,0,0,0,.866.5A.987.987,0,0,0,7.987,5.079Zm10.031,17.3a1,1,0,0,0,.364-1.366l-1-1.731a1,1,0,0,0-1.731,1l1,1.731a1,1,0,0,0,1.367.364Zm2.269-14.03,1.731-1a1,1,0,0,0-1-1.731l-1.731,1a1,1,0,0,0,1,1.731Zm-17.3,10.03,1.731-1a1,1,0,0,0-1-1.731l-1.731,1a1,1,0,0,0,.5,1.866A.987.987,0,0,0,2.984,18.382Z"/></svg>