<svg id="Layer_1" data-name="Layer 1" xmlns="http://www.w3.org/2000/svg" viewBox="0 0 24 24"><path d="M10,23a1,1,0,0,1-1,1H1a1,1,0,0,1,0-2H9A1,1,0,0,1,10,23Z"/><path d="M1,20H7a1,1,0,0,0,0-2H1a1,1,0,0,0,0,2Z"/><path d="M1,16H5a1,1,0,0,0,0-2H1a1,1,0,0,0,0,2Z"/><path d="M12,0A12,12,0,0,0,0,12c0,.061.008.12.009.181A2.966,2.966,0,0,1,1,12H5a2.99,2.99,0,0,1,2.78,4.116,2.975,2.975,0,0,1,2,4,2.949,2.949,0,0,1,2.039,3.875c.061,0,.12.009.181.009A12,12,0,0,0,12,0Zm3.707,15.707a1,1,0,0,1-1.414,0l-3-3A1,1,0,0,1,11,12V7a1,1,0,0,1,2,0v4.586l2.707,2.707A1,1,0,0,1,15.707,15.707Z"/></svg>