<svg id="Layer_1" data-name="Layer 1" xmlns="http://www.w3.org/2000/svg" viewBox="0 0 24 24"><path d="M14.181.207A1,1,0,0,0,13,1.19V4.069a8,8,0,1,0,0,15.862V22.81a1,1,0,0,0,1.181.983,11.991,11.991,0,0,0,0-23.586ZM13,13.723V16a1,1,0,0,1-2,0V13.723a1.984,1.984,0,0,1,0-3.446V7a1,1,0,0,1,2,0v3.277a1.984,1.984,0,0,1,0,3.446ZM2.986,4.968a1,1,0,1,1-1.17.8A1,1,0,0,1,2.986,4.968Zm-1.6,3.987a1,1,0,1,1-1.17.8A1,1,0,0,1,1.383,8.955Zm8.742,12.868a1,1,0,1,1-1.17.794A1,1,0,0,1,10.125,21.823ZM6.008,1.9a1,1,0,1,1-1.17.8A1,1,0,0,1,6.008,1.9ZM10.182.209A1,1,0,1,1,9,.98,1,1,0,0,1,10.182.209ZM.234,14.046a1,1,0,1,1,.8,1.17A1,1,0,0,1,.234,14.046Zm1.681,3.963a1,1,0,1,1,.8,1.17A1,1,0,0,1,1.915,18.009ZM4.967,21a1,1,0,1,1,.8,1.17A1,1,0,0,1,4.967,21Z"/></svg>