<svg id="Layer_1" data-name="Layer 1" xmlns="http://www.w3.org/2000/svg" viewBox="0 0 24 24"><path d="M4.259,2.845A11.943,11.943,0,0,1,11,.051v1.3a11.938,11.938,0,0,0,2.28,6.689,1.09,1.09,0,0,1-.137,1.4l-.367.367a1.1,1.1,0,0,1-1.552,0ZM17.59,7.824a1.1,1.1,0,0,0,.186,1.711A9.939,9.939,0,0,0,22.706,11h1.243a11.943,11.943,0,0,0-2.794-6.741ZM13,.051V1.323a9.9,9.9,0,0,0,1.465,4.9,1.1,1.1,0,0,0,1.71.186l3.566-3.566A11.941,11.941,0,0,0,13,.051Zm1.557,10.806-.367.367a1.1,1.1,0,0,0,0,1.552l6.965,6.965A11.941,11.941,0,0,0,23.949,13H22.677a11.966,11.966,0,0,1-6.717-2.28A1.092,1.092,0,0,0,14.557,10.857ZM9.443,13.143l.367-.367a1.1,1.1,0,0,0,0-1.552L2.845,4.259A11.941,11.941,0,0,0,.051,11H1.323A11.964,11.964,0,0,1,8.04,13.28,1.092,1.092,0,0,0,9.443,13.143Zm1.781,1.047-.367.367a1.092,1.092,0,0,0-.137,1.4A11.929,11.929,0,0,1,13,22.648v1.3a11.941,11.941,0,0,0,6.741-2.794L12.776,14.19A1.1,1.1,0,0,0,11.224,14.19ZM11,22.677a9.9,9.9,0,0,0-1.465-4.9,1.1,1.1,0,0,0-1.71-.185L4.259,21.155A11.941,11.941,0,0,0,11,23.949ZM1.294,13H.051a11.943,11.943,0,0,0,2.794,6.741L6.41,16.176a1.1,1.1,0,0,0-.186-1.711A9.939,9.939,0,0,0,1.294,13Z"/></svg>