<?xml version="1.0" encoding="iso-8859-1"?>
<!-- Generator: Adobe Illustrator 24.3.0, SVG Export Plug-In . SVG Version: 6.00 Build 0)  -->
<svg version="1.1" id="Layer_1" xmlns="http://www.w3.org/2000/svg" xmlns:xlink="http://www.w3.org/1999/xlink" x="0px" y="0px"
	 viewBox="0 0 24 24" style="enable-background:new 0 0 24 24;" xml:space="preserve">
<path d="M22.707,22.707c-0.39,0.39-1.024,0.39-1.414,0l-1.414-1.414l-1.415,1.414c-0.384,0.397-1.017,0.408-1.414,0.025
	c-0.397-0.384-0.408-1.017-0.025-1.414c0.008-0.008,0.016-0.017,0.025-0.025l1.414-1.414l-1.414-1.415
	c-0.397-0.384-0.408-1.017-0.025-1.414c0.384-0.397,1.017-0.408,1.414-0.025c0.008,0.008,0.017,0.016,0.025,0.025l1.415,1.414
	l1.414-1.414c0.384-0.397,1.017-0.408,1.414-0.025c0.397,0.384,0.408,1.017,0.025,1.414c-0.008,0.008-0.016,0.017-0.025,0.025
	l-1.414,1.415l1.414,1.414c0.392,0.389,0.397,1.019,0.008,1.411C22.713,22.706,22.712,22.708,22.707,22.707z"/>
<path d="M14.035,20.015c-0.004-3.297,2.665-5.973,5.961-5.978c1.283-0.002,2.533,0.41,3.563,1.175
	c1.773-6.385-1.966-12.998-8.35-14.771S2.213,2.406,0.44,8.791S2.406,21.79,8.79,23.563c2.1,0.583,4.319,0.583,6.419,0
	C14.447,22.537,14.035,21.293,14.035,20.015z M13,12.022c0,0.266-0.106,0.52-0.294,0.708l-3.005,3.006
	c-0.398,0.384-1.032,0.373-1.416-0.025c-0.375-0.388-0.375-1.004,0-1.392l2.712-2.712V7.013c0-0.553,0.448-1.002,1.002-1.002
	C12.552,6.011,13,6.46,13,7.013V12.022z"/>
</svg>
