<?xml version="1.0" encoding="iso-8859-1"?>
<!-- Generator: Adobe Illustrator 24.3.0, SVG Export Plug-In . SVG Version: 6.00 Build 0)  -->
<svg version="1.1" id="Layer_1" xmlns="http://www.w3.org/2000/svg" xmlns:xlink="http://www.w3.org/1999/xlink" x="0px" y="0px"
	 viewBox="0 0 24 24" style="enable-background:new 0 0 24 24;" xml:space="preserve">
<path d="M18.951,23h-0.033c-0.511-0.008-0.997-0.225-1.344-0.6l-1.918-1.881c-0.384-0.397-0.375-1.03,0.022-1.414
	c0.001-0.001,0.002-0.002,0.003-0.003l0,0c0.397-0.381,1.027-0.37,1.41,0.024l1.861,1.823l3.341-3.341c0.39-0.39,1.024-0.39,1.414,0
	l0,0c0.39,0.39,0.39,1.024,0,1.414l-3.421,3.421C19.934,22.8,19.453,23.001,18.951,23z"/>
<path d="M14.035,20.015c-0.004-3.297,2.665-5.973,5.961-5.978c1.283-0.002,2.533,0.41,3.563,1.175
	c1.773-6.385-1.966-12.998-8.35-14.771S2.213,2.406,0.44,8.791S2.406,21.79,8.79,23.563c2.1,0.583,4.319,0.583,6.419,0
	C14.447,22.537,14.035,21.293,14.035,20.015z M13,12.022c0,0.266-0.106,0.52-0.294,0.708l-3.005,3.006
	c-0.398,0.384-1.032,0.373-1.416-0.025c-0.375-0.388-0.375-1.004,0-1.392l2.712-2.712V7.013c0-0.553,0.448-1.002,1.002-1.002
	C12.552,6.011,13,6.46,13,7.013V12.022z"/>
</svg>
