<svg id="Layer_1" data-name="Layer 1" xmlns="http://www.w3.org/2000/svg" viewBox="0 0 24 24"><path d="M19,24H18a1,1,0,0,1,0-2h1a3,3,0,0,0,3-3V18a1,1,0,0,1,2,0v1A5.006,5.006,0,0,1,19,24ZM24,6V5a5.006,5.006,0,0,0-5-5H18a1,1,0,0,0,0,2h1a3,3,0,0,1,3,3V6a1,1,0,0,0,2,0Zm0,8V10a1,1,0,0,0-2,0v4a1,1,0,0,0,2,0ZM7,23a1,1,0,0,0-1-1H5a3,3,0,0,1-3-3V18a1,1,0,0,0-2,0v1a5.006,5.006,0,0,0,5,5H6A1,1,0,0,0,7,23ZM2,6V5A3,3,0,0,1,5,2H6A1,1,0,0,0,6,0H5A5.006,5.006,0,0,0,0,5V6A1,1,0,0,0,2,6Zm0,8V10a1,1,0,0,0-2,0v4a1,1,0,0,0,2,0ZM14.932,1a1,1,0,0,0-1-1H10a1,1,0,0,0,0,2h3.932A1,1,0,0,0,14.932,1ZM15,23a1,1,0,0,0-1-1H10a1,1,0,0,0,0,2h4A1,1,0,0,0,15,23Zm5-4V5a1,1,0,0,0-1-1H5A1,1,0,0,0,4,5V19a1,1,0,0,0,1,1H19A1,1,0,0,0,20,19Z"/></svg>