<svg id="Layer_1" data-name="Layer 1" xmlns="http://www.w3.org/2000/svg" viewBox="0 0 24 24"><path d="M18,12a6,6,0,1,0-6,6A6.006,6.006,0,0,0,18,12Zm-3.369,1.108-1.893,2.523a.922.922,0,0,1-1.476,0L9.369,13.108a1.848,1.848,0,0,1,0-2.216l1.893-2.523a.922.922,0,0,1,1.476,0l1.893,2.523A1.848,1.848,0,0,1,14.631,13.108ZM9.565.249a12.031,12.031,0,0,1,4.87,0l-.888,3.057a.98.98,0,0,1-1.007.715C12.362,4.008,12.182,4,12,4s-.362.008-.54.021a.981.981,0,0,1-1.007-.715Zm5.894,3.644.89-3.065a12.048,12.048,0,0,1,6.823,6.823l-3.065.89a.984.984,0,0,1-1.133-.447,8.044,8.044,0,0,0-3.068-3.068A.984.984,0,0,1,15.459,3.893Zm4.52,7.567a.98.98,0,0,1,.715-1.007l3.057-.888a12.031,12.031,0,0,1,0,4.87l-3.057-.888a.98.98,0,0,1-.715-1.007c.013-.178.021-.358.021-.54S19.992,11.638,19.979,11.46ZM3.894,8.487.877,7.517A12.052,12.052,0,0,1,7.651.828l.89,3.065a.985.985,0,0,1-.448,1.134A8.046,8.046,0,0,0,5.052,8.05.986.986,0,0,1,3.894,8.487ZM14.572,23.715a11.748,11.748,0,0,1-5.144,0l.98-3.051a.978.978,0,0,1,1-.689c.2.016.393.025.592.025s.4-.009.592-.025a.978.978,0,0,1,1,.689ZM4.025,12.592a.978.978,0,0,1-.689,1l-3.051.98a11.748,11.748,0,0,1,0-5.144l3.051.98a.978.978,0,0,1,.689,1C4.009,11.6,4,11.8,4,12S4.009,12.4,4.025,12.592Zm16.082,2.867,3.065.89a12.052,12.052,0,0,1-6.689,6.774l-.97-3.017a.983.983,0,0,1,.437-1.158,8.049,8.049,0,0,0,3.024-3.041A.983.983,0,0,1,20.107,15.459ZM8.487,20.106l-.97,3.017a12.058,12.058,0,0,1-6.64-6.64l3.017-.97a.983.983,0,0,1,1.158.438,8.052,8.052,0,0,0,3,3A.985.985,0,0,1,8.487,20.106Z"/></svg>