<svg id="Layer_1" data-name="Layer 1" xmlns="http://www.w3.org/2000/svg" viewBox="0 0 24 24"><path d="M23,19a1,1,0,0,0-1,1,2,2,0,0,1-2,2H16V18h2.1A3.905,3.905,0,0,0,22,14.1a6.014,6.014,0,0,0-4.823-5.883l-1.741-.349L13.369,11.5a1,1,0,0,1-1.738-.99l1.738-3.051L13.3,7.44a1.967,1.967,0,0,1-.605-.231L9.674,9.047A1,1,0,0,1,8.635,7.338l3.043-1.849L11.614,5H8A1,1,0,0,1,8,3h3.352L11.3,2.576A3,3,0,0,0,7.619.086L2.91,1.42A4.015,4.015,0,0,0,0,5.269V14a4,4,0,0,0,4,4H5v4H1a1,1,0,0,0,0,2H20a4,4,0,0,0,4-4A1,1,0,0,0,23,19ZM7,18h7v4H7Z"/></svg>