<svg id="Layer_1" data-name="Layer 1" xmlns="http://www.w3.org/2000/svg" viewBox="0 0 24 24"><path d="M18,13a3.987,3.987,0,0,0-2,7.444v2.833a.721.721,0,0,0,1.231.51L18,23.019l.769.768A.721.721,0,0,0,20,23.277V20.444A3.987,3.987,0,0,0,18,13Z"/><path d="M12,17a5.993,5.993,0,0,1,9-5.191V5a5.006,5.006,0,0,0-5-5H8A5.006,5.006,0,0,0,3,5V17a5.006,5.006,0,0,0,5,5h6v-.54A5.975,5.975,0,0,1,12,17ZM8,4h8a1,1,0,0,1,0,2H8A1,1,0,0,1,8,4ZM8,8h8a1,1,0,0,1,0,2H8A1,1,0,0,1,8,8Zm3,6H8a1,1,0,0,1,0-2h3a1,1,0,0,1,0,2Z"/></svg>