<svg id="Layer_1" data-name="Layer 1" xmlns="http://www.w3.org/2000/svg" viewBox="0 0 24 24"><path d="M14.181.207A1,1,0,0,0,13,1.19V4.069A8.053,8.053,0,1,0,19.931,11h2.886A1,1,0,0,0,23.8,9.819,12.047,12.047,0,0,0,14.181.207ZM16,13H13.723A1.994,1.994,0,1,1,11,10.277V7a1,1,0,0,1,2,0v3.277a2,2,0,0,1,.723.723H16a1,1,0,0,1,0,2ZM2.986,4.968a1,1,0,1,1-1.17.8A1,1,0,0,1,2.986,4.968Zm-1.6,3.987a1,1,0,1,1-1.17.8A1,1,0,0,1,1.383,8.955Zm8.742,12.868a1,1,0,1,1-1.17.794A1,1,0,0,1,10.125,21.823ZM6.008,1.9a1,1,0,1,1-1.17.8A1,1,0,0,1,6.008,1.9ZM10.182.209A1,1,0,1,1,9,.98,1,1,0,0,1,10.182.209ZM.234,14.046a1,1,0,1,1,.8,1.17A1,1,0,0,1,.234,14.046Zm1.681,3.963a1,1,0,1,1,.8,1.17A1,1,0,0,1,1.915,18.009ZM4.967,21a1,1,0,1,1,.8,1.17A1,1,0,0,1,4.967,21Zm16.047-1.967a1,1,0,1,1,1.17-.8A1,1,0,0,1,21.014,19.032ZM17.992,22.1a1,1,0,1,1,1.17-.8A1,1,0,0,1,17.992,22.1Zm-3.939,1.656a1,1,0,1,1,1.17-.795A1,1,0,0,1,14.053,23.752ZM23.712,14a1,1,0,1,1-1-1A1,1,0,0,1,23.712,14Z"/></svg>