<svg id="Filled" xmlns="http://www.w3.org/2000/svg" viewBox="0 0 24 24"><title>101 grid</title><rect y="17.5" width="6.5" height="6.5" rx="2"/><path d="M23.118,17.842A1.988,1.988,0,0,0,22,17.5H19.5a2,2,0,0,0-2,2V22a2,2,0,0,0,2,2H22a2,2,0,0,0,2-2V19.5a2,2,0,0,0-.882-1.658Z"/><rect y="8.75" width="6.5" height="6.5" rx="2"/><path d="M23.118,9.092A1.988,1.988,0,0,0,22,8.75H19.5a2,2,0,0,0-2,2v2.5a2,2,0,0,0,2,2H22a2,2,0,0,0,2-2v-2.5a2,2,0,0,0-.882-1.658Z"/><rect width="6.5" height="6.5" rx="2"/><path d="M14.368,17.842A1.988,1.988,0,0,0,13.25,17.5h-2.5a2,2,0,0,0-2,2V22a2,2,0,0,0,2,2h2.5a2,2,0,0,0,2-2V19.5a2,2,0,0,0-.882-1.658Z"/><path d="M14.368,9.092A1.988,1.988,0,0,0,13.25,8.75h-2.5a2,2,0,0,0-2,2v2.5a2,2,0,0,0,2,2h2.5a2,2,0,0,0,2-2v-2.5a2,2,0,0,0-.882-1.658Z"/><path d="M14.368.342A1.988,1.988,0,0,0,13.25,0h-2.5a2,2,0,0,0-2,2V4.5a2,2,0,0,0,2,2h2.5a2,2,0,0,0,2-2V2A2,2,0,0,0,14.368.342Z"/><path d="M23.658.882A2,2,0,0,0,22,0H19.5a2,2,0,0,0-2,2V4.5a2,2,0,0,0,2,2H22a2,2,0,0,0,2-2V2A1.988,1.988,0,0,0,23.658.882Z"/></svg>