<svg id="Layer_1" data-name="Layer 1" xmlns="http://www.w3.org/2000/svg" viewBox="0 0 24 24"><path d="M9,0H5A5,5,0,0,0,0,5V19a5,5,0,0,0,5,5h9V5A5,5,0,0,0,9,0ZM5,19H4a1,1,0,0,1,0-2H5a1,1,0,0,1,0,2Zm0-4H4a1,1,0,0,1,0-2H5a1,1,0,0,1,0,2Zm0-4H4A1,1,0,0,1,4,9H5a1,1,0,0,1,0,2ZM5,7H4A1,1,0,0,1,4,5H5A1,1,0,0,1,5,7Zm5,12H9a1,1,0,0,1,0-2h1a1,1,0,0,1,0,2Zm0-4H9a1,1,0,0,1,0-2h1a1,1,0,0,1,0,2Zm0-4H9A1,1,0,0,1,9,9h1a1,1,0,0,1,0,2Zm0-4H9A1,1,0,0,1,9,5h1a1,1,0,0,1,0,2Zm9-2H16V24h3a5.006,5.006,0,0,0,5-5V10A5.006,5.006,0,0,0,19,5Zm1,14a1,1,0,1,1,1-1A1,1,0,0,1,20,19Zm0-4a1,1,0,1,1,1-1A1,1,0,0,1,20,15Zm0-4a1,1,0,1,1,1-1A1,1,0,0,1,20,11Z"/></svg>