<svg id="Layer_1" data-name="Layer 1" xmlns="http://www.w3.org/2000/svg" viewBox="0 0 24 24"><path d="M24,21a1,1,0,0,1-1,1H14.816a2.982,2.982,0,0,1-5.632,0H1a1,1,0,0,1,0-2H9.184A3,3,0,0,1,11,18.184V14H5a3,3,0,0,1-3-3,1,1,0,0,1,1-1H8.586L9,10.414A1.986,1.986,0,0,0,10.414,11h3.172A1.986,1.986,0,0,0,15,10.414L15.414,10H21a1,1,0,0,1,1,1,3,3,0,0,1-3,3H13v4.184A3,3,0,0,1,14.816,20H23A1,1,0,0,1,24,21ZM10,8.586,10.414,9h3.172L14,8.586A1.986,1.986,0,0,1,15.414,8H21V4a4,4,0,0,0-4-4H7A4,4,0,0,0,3,4V8H8.586A1.986,1.986,0,0,1,10,8.586Z"/></svg>