<svg id="Layer_1" data-name="Layer 1" xmlns="http://www.w3.org/2000/svg" viewBox="0 0 24 24"><path d="M.024,11.523A11.943,11.943,0,0,1,2.755,4.359l1.106,3.6a1,1,0,0,1-.382,1.114Zm11.39-8.712a1,1,0,0,0,1.174,0L15.627.563a11.948,11.948,0,0,0-7.28.01Zm9.1,6.256,3.457,2.456a11.943,11.943,0,0,0-2.731-7.164L20.14,7.953A1,1,0,0,0,20.519,9.067ZM6.7,18.683a1,1,0,0,0-.949-.69l-4.139-.007a12.052,12.052,0,0,0,6.567,5.381Zm11.541-.69a1,1,0,0,0-.948.694l-1.525,4.7a12.056,12.056,0,0,0,6.615-5.4Zm-4.583-4.339.731-2.253a.5.5,0,0,0-.181-.559L12.294,9.45a.5.5,0,0,0-.588,0L9.79,10.842a.5.5,0,0,0-.182.56l.732,2.252a.5.5,0,0,0,.475.346h2.37A.5.5,0,0,0,13.661,13.654ZM13.5,23.9A11.842,11.842,0,0,1,12,24a11.934,11.934,0,0,1-1.556-.113L8.608,18.076a2.992,2.992,0,0,0-2.849-2.083L.694,15.984a11.919,11.919,0,0,1-.532-2.106L4.634,10.7A2.991,2.991,0,0,0,5.772,7.365L4.356,2.758A12.007,12.007,0,0,1,6.215,1.493l4.021,2.934a3,3,0,0,0,3.534,0l3.987-2.946a12.029,12.029,0,0,1,1.887,1.282L18.228,7.364A2.991,2.991,0,0,0,19.363,10.7l4.475,3.178a11.886,11.886,0,0,1-.532,2.105l-5.067.01a2.991,2.991,0,0,0-2.846,2.08ZM13.185,16a2.5,2.5,0,0,0,2.378-1.728l.731-2.253a2.492,2.492,0,0,0-.908-2.795L13.469,7.832a2.491,2.491,0,0,0-2.938,0h0L8.614,9.224a2.493,2.493,0,0,0-.908,2.8l.732,2.253A2.494,2.494,0,0,0,10.815,16Z"/></svg>