<svg id="Layer_1" data-name="Layer 1" xmlns="http://www.w3.org/2000/svg" viewBox="0 0 24 24"><path d="M16,23a1,1,0,1,1,1,1A1,1,0,0,1,16,23Zm4.535-2.122a1,1,0,0,0,0-1.414,5,5,0,0,0-7.07,0,1,1,0,0,0,1.414,1.414,3.074,3.074,0,0,1,4.242,0,1,1,0,0,0,1.414,0Zm2.829-2.828a1,1,0,0,0,0-1.414,9.01,9.01,0,0,0-12.728,0A1,1,0,0,0,12.05,18.05a7.011,7.011,0,0,1,9.9,0,1,1,0,0,0,1.414,0ZM9.222,19.464a3,3,0,0,1,0-4.243A11.014,11.014,0,0,1,23.979,14.5a7.945,7.945,0,0,0-5.622-7.14,1.087,1.087,0,0,1-.722-.733h0a8,8,0,0,0-15.49.842,7.648,7.648,0,0,0,.8,5.179A5.448,5.448,0,0,0,.057,18.3,5.844,5.844,0,0,0,5.683,23h7.1C11.116,21.347,9.487,19.729,9.222,19.464Z"/></svg>