<svg id="Filled" xmlns="http://www.w3.org/2000/svg" viewBox="0 0 24 24"><title>55 ai file</title><polygon points="6.139 8.514 7.502 8.514 6.823 6.715 6.139 8.514"/><path d="M19,0H5A5.006,5.006,0,0,0,0,5V19a5.006,5.006,0,0,0,5,5H15.515c.163,0,.324-.013.485-.024V19a3,3,0,0,1,3-3h4.976c.011-.161.024-.322.024-.485V5A5.006,5.006,0,0,0,19,0ZM9.114,11.016a.626.626,0,0,1-.805-.365l-.335-.887H5.663l-.339.889a.626.626,0,0,1-.584.4.64.64,0,0,1-.222-.041.625.625,0,0,1-.362-.807L6.131,5.021a.748.748,0,0,1,.695-.477h0a.744.744,0,0,1,.687.464l1.964,5.2A.626.626,0,0,1,9.114,11.016Zm2.743-.585a.625.625,0,0,1-1.25,0V5.169a.625.625,0,0,1,1.25,0Z"/><path d="M18,19v4.54a6.977,6.977,0,0,0,2.465-1.59l1.484-1.485A6.957,6.957,0,0,0,23.54,18H19A1,1,0,0,0,18,19Z"/></svg>