<svg id="Layer_1" data-name="Layer 1" xmlns="http://www.w3.org/2000/svg" viewBox="0 0 24 24"><path d="M14,7V.46a6.977,6.977,0,0,1,2.465,1.59l3.484,3.486A6.954,6.954,0,0,1,21.54,8H15A1,1,0,0,1,14,7Zm8,3.485V19a5.006,5.006,0,0,1-5,5H7a5.006,5.006,0,0,1-5-5V5A5.006,5.006,0,0,1,7,0h4.515c.163,0,.324.013.485.024V7a3,3,0,0,0,3,3h6.976C21.987,10.161,22,10.322,22,10.485Zm-5.276,3.826a1,1,0,0,0-1.413-.035l-3.6,3.431a1,1,0,0,1-1.456-.04L8.666,16.253a1,1,0,0,0-1.332,1.494l1.544,1.374a3,3,0,0,0,4.226.017l3.585-3.414A1,1,0,0,0,16.724,14.311Z"/></svg>